# xmcd
#
# Track frame offsets: 
#        150
#        21627
#        35863
#        52287
#        71214
#        89495
#        112357
#        131648
#        149955
#        171544
#
# Disc length: 2518 seconds
#
# Revision: 0
# Processed by: cddbd v1.5.2PL0 Copyright (c) Steve Scherf et al.
# Submitted via: ExactAudioCopy v0.99pb4
#
DISCID=b809d40a
DTITLE=Tamara Peterson and Lucky Peterson - Darling Forever
DYEAR=2009
DGENRE=Blues\Contemporary Blues 
TTITLE0=You Gotta Love Me Baby (Take My Pain Away)
TTITLE1=Lost The Right
TTITLE2=Smile
TTITLE3=I Don't Like You But I Love You
TTITLE4=Talkin' 'Bout Love
TTITLE5=Free
TTITLE6=Darling Forever
TTITLE7=What You Wanna Do About It
TTITLE8=Sometimes
TTITLE9=I Believe
EXTD=
EXTT0=
EXTT1=
EXTT2=
EXTT3=
EXTT4=
EXTT5=
EXTT6=
EXTT7=
EXTT8=
EXTT9=
PLAYORDER=
